# xmcd CD database file
#
# Track frame offsets:
#	150
#	23301
#	47622
#	75813
#	101451
#	131156
#	153685
#	177786
#	204541
#
# Disc length: 3238 seconds
#
# Revision: 0
# Processed by: cddbd v1.5.1PL0 Copyright (c) Steve Scherf et al.
# Submitted via: CDex 1.60beta1
#
DISCID=610ca409
DTITLE=Naturescapes - Nature and Flute
DYEAR=1996
DGENRE=New Age
TTITLE0=Flowers
TTITLE1=Moonshadows
TTITLE2=Tradewinds
TTITLE3=Stalactite
TTITLE4=Nimbus
TTITLE5=Aspen Trail
TTITLE6=Summer Waltz
TTITLE7=Reflections Of A Silver Moon
TTITLE8=Mystery Track
EXTD=YEAR: 1996
EXTT0=
EXTT1=
EXTT2=
EXTT3=
EXTT4=
EXTT5=
EXTT6=
EXTT7=
EXTT8=
PLAYORDER=
